<svg width="60" height="42" viewBox="0 0 60 42" fill="none" xmlns="http://www.w3.org/2000/svg">
<rect x="0.5" y="0.5" width="59" height="40.1429" rx="5.5" fill="white" stroke="#D9D9D9"/>
<path fill-rule="evenodd" clip-rule="evenodd" d="M39.3558 13.4231C38.3857 13.4231 37.5978 14.2069 37.5978 15.1731C37.5978 16.1399 38.3857 16.922 39.3558 16.922C40.3277 16.922 41.115 16.1399 41.115 15.1731C41.115 14.2069 40.3277 13.4231 39.3558 13.4231ZM13.9956 19.2864C13.5449 19.2574 12.5005 19.1897 12.5005 18.2548C12.5005 17.1266 14.0031 17.1266 14.567 17.1266C15.5588 17.1266 16.842 17.4176 17.7596 17.691C17.7596 17.691 18.2703 17.8706 18.7051 18.0536L18.7457 18.065V14.9747L18.6914 14.9583C17.6082 14.5814 16.3507 14.2194 14.0179 14.2194C9.99631 14.2194 8.57141 16.5491 8.57141 18.5469C8.57141 19.6973 9.06733 22.4073 13.6717 22.7193L13.676 22.7196C14.0705 22.7436 15.0994 22.8063 15.0994 23.7691C15.0994 24.567 14.251 25.0365 12.8244 25.0365C11.2612 25.0365 9.74378 24.6409 8.8228 24.2641V27.4458C10.202 27.8067 11.7572 27.9852 13.5797 27.9852C17.5105 27.9852 19.2725 25.7805 19.2725 23.5946C19.2725 21.1171 17.3019 19.5069 13.9956 19.2864ZM25.8645 17.9129C25.8721 17.893 25.8782 17.8773 25.8826 17.866H30.0933C29.9734 18.2474 29.2221 20.5487 27.5092 22.7096C27.5092 22.7096 29.4169 26.0351 29.8528 27.8391H25.4438C25.4438 27.8391 24.9171 25.444 23.851 23.8526V27.8391H20.1693V14.9441L23.851 14.2194V21.3342C25.1555 19.7645 25.7368 18.2465 25.8645 17.9129ZM47.8606 27.8391V14.8543L51.4286 14.2194V27.8391H47.8606ZM35.5609 17.7313C32.2649 17.837 30.5904 19.3091 30.5904 22.235V27.8391H34.1875V23.2683C34.1875 21.5172 34.4183 20.7664 36.5076 20.6948V17.783C36.1563 17.7086 35.5609 17.7313 35.5609 17.7313ZM37.5733 27.8391V17.8774H41.1407V27.8391H37.5733ZM42.6525 14.8543L46.2181 14.2194V27.8391H42.6525V14.8543Z" fill="#862165"/>
</svg>
